<svg xmlns="http://www.w3.org/2000/svg" id="Layer_1" data-name="Layer 1" viewBox="0 0 265.49961 187.27076"><defs><style>.cls-1,.cls-2{fill:#fff;}.cls-2{fill-rule:evenodd;}</style></defs><path class="cls-1" d="M75.6336,65.86516v3.399s-7.87286.20116-7.86519-5.21316C67.781,55.14455,116.81,24.53674,174.457,23.02568c0,0-42.45691,6.80234-67.14454,18.1353C86.1131,50.89265,62.7518,65.67539,75.6336,65.86516Z"></path><path class="cls-1" d="M75.89605,94.6548l.002,3.73764s-9.21143-1.31054-6.94484-6.91311S83.45463,78.895,125.98973,69.9467a275.48074,275.48074,0,0,1,75.25087-4.64651s-48.84507,2.60658-74.40455,8.74127C101.11022,79.028,62.52316,90.91493,75.89605,94.6548Z"></path><path class="cls-1" d="M79.109,78.40865l4.53319-2.26659V64.50876s.30221-3.17511-2.26659-3.17511-2.2666,4.98651-2.2666,4.98651Z"></path><path class="cls-1" d="M86.43769,74.85765l5.89314-2.11548V60.50257s.37777-5.43982-3.62654-3.62655c-2.67713,1.21228-2.2666,6.1198-2.2666,6.1198Z"></path><path class="cls-1" d="M95.57962,71.68334l7.63086-2.13665V54.38277s-.45332-4.53319-4.38208-3.47544-3.24878,8.46194-3.24878,8.46194Z"></path><path class="cls-1" d="M107.35587,68.4761l10.54437-2.49524.13959-15.64351a4.94091,4.94091,0,0,0-.61648-2.30921,4.57693,4.57693,0,0,0-4.27764-2.25794c-4.41986-.00048-5.4776,5.96821-5.70426,7.63038S107.35587,68.4761,107.35587,68.4761Z"></path><path class="cls-1" d="M125.24589,64.37325l14.00341-2.62406V45.28271a5.194,5.194,0,0,0-.42376-2.08611c-.76652-1.75335-2.717-4.69079-6.98044-3.77334-5.9687,1.2844-6.19536,6.49756-6.57312,8.76416S125.24589,64.37325,125.24589,64.37325Z"></path><path class="cls-1" d="M77.66884,47.8493l4.10577-2.60845V35.26s.27372-2.87573-2.05288-2.87573-2.05289,4.51634-2.05289,4.51634Z"></path><path class="cls-1" d="M84.77553,43.5409l5.89314-3.42412v-11.671s.37776-5.43983-3.62655-3.62655c-2.67712,1.21228-2.26659,6.1198-2.26659,6.1198Z"></path><path class="cls-1" d="M94.95448,38.11653l8.23175-3.37733.02425-14.74471s-.489-4.53318-4.72714-3.47544S94.97873,24.981,94.97873,24.981Z"></path><path class="cls-1" d="M108.43207,32.38426l10.21509-3.31177.13449-15.784a4.94094,4.94094,0,0,0-.61648-2.30921,4.577,4.577,0,0,0-4.27764-2.25794c-4.41986-.00048-5.4776,5.96821-5.70426,7.63038S108.43207,32.38426,108.43207,32.38426Z"></path><path class="cls-1" d="M125.19411,26.55782l13.86631-3.52958V5.85945a5.19379,5.19379,0,0,0-.42377-2.08611C137.87014,2.02,135.91964-.91745,131.65621,0c-5.96869,1.2844-6.19535,6.49757-6.57311,8.76416S125.19411,26.55782,125.19411,26.55782Z"></path><path class="cls-1" d="M147.63569,60.67256l16.32283-1.39673-.68334-20.96254s-.85256-8.68594-8.91526-6.2709c-6.81042,2.03993-6.72423,10.80409-6.72423,10.80409Z"></path><path class="cls-1" d="M79.73269,108.89432h4.53319V94.87515s.30221-2.98215-2.2666-2.98215-2.26659,4.68347-2.26659,4.68347Z"></path><path class="cls-1" d="M87.73756,108.74771H93.6307v-13.113s.56665-7.47975-3.62655-6.0481c-2.78118.94956-2.26659,6.1198-2.26659,6.1198Z"></path><path class="cls-1" d="M97.57276,108.74771h7.63086V91.366s-.02439-5.57409-4.38208-4.71325c-3.58877.70894-3.29734,7.91415-3.25146,8.43279.00191.02152.00268.04313.00268.06474Z"></path><path class="cls-1" d="M109.85635,108.59211h10.54437l.13369-16.24376c-.04864-2.33935.02724-3.61793-.9064-5.78595-.66292-1.5394-2.08812-2.65515-4.97106-2.46626-4.4104.28895-4.64378,5.3084-4.715,7.02665C109.87244,92.7989,109.85635,108.59211,109.85635,108.59211Z"></path><path class="cls-1" d="M148.62081,109.0832h16.32283V90.49714c-.00075-.10523-.16089-3.00015-.1764-3.10424-.20513-1.37625-.52057-9.56-8.68142-8.92565-7.99388.62138-7.465,10.89587-7.465,10.89587Z"></path><path class="cls-1" d="M126.28053,109.0832h15.57094V91.58235c-.00072-.09908-.15348-2.825-.16828-2.923,0,0-.49659-9.00181-8.28151-8.4045-7.62566.58509-7.12115,10.25967-7.12115,10.25967Z"></path><path class="cls-1" d="M173.02153,108.85654l16.32283.46178V87.32391s.29884-11.33223-9.67416-9.59524c-7.00393,1.21987-6.64867,11.63445-6.64867,11.63445Z"></path><polygon class="cls-2" points="29.985 125.406 27.432 125.406 26.682 125.406 0.5 160.141 8.406 160.141 14.34 152.269 18.686 146.504 29.195 132.563 44.049 152.269 49.983 160.141 57.889 160.141 31.706 125.406 29.985 125.406"></polygon><polygon class="cls-2" points="237.783 124.962 236.061 124.962 233.508 124.962 232.758 124.962 206.576 159.697 214.482 159.697 220.416 151.824 224.762 146.06 235.271 132.119 250.125 151.824 256.06 159.697 263.965 159.697 237.783 124.962"></polygon><polygon class="cls-2" points="113.608 125.06 113.608 159.772 152.629 159.772 152.592 154.008 133.06 154.008 119.395 154.008 119.395 130.847 133.06 130.847 152.629 130.847 152.592 125.06 113.608 125.06"></polygon><polygon class="cls-2" points="124.037 145.321 152.629 145.298 152.592 139.534 124.037 139.534 124.037 145.321"></polygon><polygon class="cls-2" points="197.332 125.06 197.332 139.534 197.332 145.321 197.332 152.026 164.709 125.182 164.709 125.06 164.562 125.06 158.922 125.06 158.922 128.067 158.922 159.772 164.709 159.772 164.709 154.008 164.709 149.885 164.709 134.69 164.709 132.829 197.332 159.673 197.332 159.772 203.119 159.772 203.119 156.788 203.119 146.993 203.119 145.321 203.119 139.534 203.119 125.06 201.88 125.06 197.332 125.06"></polygon><path class="cls-2" d="M109.082,138.3468a12.92479,12.92479,0,0,0-12.88705-12.887H60.42383v34.73485h5.78695V131.36507H96.19493a6.98158,6.98158,0,1,1,0,13.96316H70.85342v5.90516H93.0617l8.1623,8.93821h7.837l-8.77368-9.60819A12.93671,12.93671,0,0,0,109.082,138.3468Z"></path><path class="cls-1" d="M0,168.47319H7.54213c5.02836,0,7.118,2.48906,7.118,5.82462,0,3.97114-3.089,5.79834-7.5722,5.79834H2.63564v7.17461H0Zm6.84585,9.5046c3.6041,0,5.05842-1.5886,5.05842-3.73253,0-2.38325-1.75656-3.6537-4.63431-3.6537H2.63564v7.38623Z"></path><path class="cls-1" d="M26.5888,168.47319h2.63564v16.67992h10.662v2.11765H26.5888Z"></path><path class="cls-1" d="M64.08334,182.69032H54.48079l-1.90767,4.58044H49.78636l8.14823-18.79757h2.63483l8.20835,18.79757H65.991Zm-.84822-2.01185-3.938-9.39878H59.237l-3.908,9.39878Z"></path><path class="cls-1" d="M92.82274,168.47319l-7.33008,10.40506v8.39251H82.85783v-8.39251l-7.3-10.40506h3.02888l5.57352,8.10135h.06012l5.54347-8.10135Z"></path><path class="cls-1" d="M135.15958,182.18754c0,2.96557-2.30253,5.08322-7.179,5.08322h-7.84518V168.47319h7.02784c4.21021,0,6.936,1.377,6.936,4.58044a4.44485,4.44485,0,0,1-3.39286,4.28929v.05255C133.1601,177.8457,135.15958,179.40731,135.15958,182.18754Zm-12.3885-5.63928h4.36133c2.0596,0,4.27114-.79394,4.27114-3.04439,0-1.774-1.36332-2.91231-4.78625-2.91231h-3.84622Zm9.6318,5.42765c0-2.09138-1.75655-3.36254-5.02754-3.36254h-4.60426v6.53974h4.48238C130.31322,185.15311,132.40288,184.12055,132.40288,181.97591Z"></path><path class="cls-1" d="M147.3604,168.47319H160.537v2.11837H150.0261v6.27414h8.63247v2.11837H150.0261v6.169h11.147v2.11765H147.3604Z"></path><path class="cls-1" d="M178.00828,170.59156h-6.4518v-2.11837H187.125v2.11837h-6.48186v16.6792h-2.63483Z"></path><path class="cls-1" d="M203.50756,170.59156h-6.4518v-2.11837h15.56849v2.11837h-6.48186v16.6792h-2.63483Z"></path><path class="cls-1" d="M224.18972,168.47319h13.17659v2.11837H226.85543v6.27414h8.63246v2.11837h-8.63246v6.169h11.147v2.11765H224.18972Z"></path><path class="cls-1" d="M262.3188,187.27076l-5.45247-7.17461h-4.05827v7.17461h-2.63564V168.47319h7.63313c4.96742,0,7.118,2.48906,7.118,5.82462,0,3.20347-1.99867,5.00369-5.11854,5.58672v.02628l5.69458,7.35995Zm-9.51074-9.293h4.3012c3.574,0,5.08848-1.5886,5.08848-3.73253,0-2.38325-1.78742-3.6537-4.72531-3.6537h-4.66437Z"></path></svg>