<?xml version="1.0" encoding="UTF-8"?>
<!-- Generator: Adobe Illustrator 24.2.0, SVG Export Plug-In . SVG Version: 6.00 Build 0)  -->
<svg xmlns="http://www.w3.org/2000/svg" xmlns:xlink="http://www.w3.org/1999/xlink" version="1.1" id="Layer_1" x="0px" y="0px" viewBox="0 0 90 65.8" style="enable-background:new 0 0 90 65.8;" xml:space="preserve">
<style type="text/css">
	.st0{fill:#0060CA;}
	.st1{fill-rule:evenodd;clip-rule:evenodd;fill:#0060CA;}
</style>
<path class="st0" d="M25.9,23.8v1.1c0,0-2.6,0.1-2.6-1.7c0-3,16.4-13.2,35.6-13.7c0,0-14.2,2.3-22.4,6  C29.4,18.8,21.6,23.7,25.9,23.8z"></path>
<path class="st0" d="M26,33.4l0,1.2c0,0-3.1-0.4-2.3-2.3c0.8-1.9,4.8-4.2,19-7.2c13.1-2.8,25.1-1.5,25.1-1.5S51.5,24.5,43,26.5  C34.4,28.2,21.6,32.2,26,33.4z"></path>
<path class="st0" d="M27.1,28l1.5-0.8v-3.9c0,0,0.1-1.1-0.8-1.1c-0.9,0-0.8,1.7-0.8,1.7V28z"></path>
<path class="st0" d="M29.5,26.8l2-0.7V22c0,0,0.1-1.8-1.2-1.2c-0.9,0.4-0.8,2-0.8,2V26.8z"></path>
<path class="st0" d="M32.6,25.7l2.5-0.7V20c0,0-0.2-1.5-1.5-1.2c-1.3,0.4-1.1,2.8-1.1,2.8V25.7z"></path>
<path class="st0" d="M36.5,24.7l3.5-0.8l0-5.2c0-0.3-0.1-0.5-0.2-0.8c-0.2-0.4-0.6-0.8-1.4-0.8c-1.5,0-1.8,2-1.9,2.5  C36.5,20.2,36.5,24.7,36.5,24.7z"></path>
<path class="st0" d="M42.5,23.3l4.7-0.9v-5.5c0-0.2,0-0.5-0.1-0.7c-0.3-0.6-0.9-1.6-2.3-1.3c-2,0.4-2.1,2.2-2.2,2.9  C42.4,18.7,42.5,23.3,42.5,23.3z"></path>
<g>
	<path class="st0" d="M26.6,17.8l1.4-0.9v-3.3c0,0,0.1-1-0.7-1s-0.7,1.5-0.7,1.5V17.8z"></path>
	<path class="st0" d="M29,16.4l2-1.1v-3.9c0,0,0.1-1.8-1.2-1.2c-0.9,0.4-0.8,2-0.8,2V16.4z"></path>
	<path class="st0" d="M32.4,14.6l2.7-1.1l0-4.9c0,0-0.2-1.5-1.6-1.2c-1.4,0.4-1.2,2.8-1.2,2.8L32.4,14.6z"></path>
	<path class="st0" d="M36.9,12.6l3.4-1.1l0-5.3c0-0.3-0.1-0.5-0.2-0.8c-0.2-0.4-0.6-0.8-1.4-0.8c-1.5,0-1.8,2-1.9,2.5   S36.9,12.6,36.9,12.6z"></path>
	<path class="st0" d="M42.5,10.7l4.6-1.2V3.8c0-0.2,0-0.5-0.1-0.7c-0.3-0.6-0.9-1.6-2.3-1.3c-2,0.4-2.1,2.2-2.2,2.9   C42.3,5.5,42.5,10.7,42.5,10.7z"></path>
</g>
<path class="st0" d="M50,22.1l5.4-0.5l-0.2-7c0,0-0.3-2.9-3-2.1c-2.3,0.7-2.2,3.6-2.2,3.6V22.1z"></path>
<g>
	<path class="st0" d="M27.3,38.2h1.5v-4.7c0,0,0.1-1-0.8-1s-0.8,1.6-0.8,1.6V38.2z"></path>
	<path class="st0" d="M30,38.1h2v-4.4c0,0,0.2-2.5-1.2-2c-0.9,0.3-0.8,2-0.8,2V38.1z"></path>
	<path class="st0" d="M33.3,38.1h2.5v-5.8c0,0,0-1.9-1.5-1.6c-1.2,0.2-1.1,2.6-1.1,2.8c0,0,0,0,0,0V38.1z"></path>
	<path class="st0" d="M37.4,38.1h3.5l0-5.4c0-0.8,0-1.2-0.3-1.9c-0.2-0.5-0.7-0.9-1.7-0.8c-1.5,0.1-1.5,1.8-1.6,2.3   C37.4,32.8,37.4,38.1,37.4,38.1z"></path>
	<path class="st0" d="M50.3,38.2h5.4V32c0,0-0.1-1-0.1-1c-0.1-0.5-0.2-3.2-2.9-3c-2.7,0.2-2.5,3.6-2.5,3.6V38.2z"></path>
	<path class="st0" d="M42.8,38.2H48v-5.8c0,0-0.1-0.9-0.1-1c0,0-0.2-3-2.8-2.8c-2.5,0.2-2.4,3.4-2.4,3.4V38.2z"></path>
	<path class="st0" d="M58.4,38.1l5.4,0.2V31c0,0,0.1-3.8-3.2-3.2c-2.3,0.4-2.2,3.9-2.2,3.9V38.1z"></path>
</g>
<g>
	<polygon class="st1" points="10.7,43.7 9.9,43.7 9.6,43.7 0.9,55.3 3.5,55.3 5.5,52.6 6.9,50.7 10.4,46.1 15.4,52.6 17.4,55.3    20,55.3 11.3,43.7  "></polygon>
	<polygon class="st1" points="80,43.5 79.4,43.5 78.6,43.5 78.3,43.5 69.6,55.1 72.2,55.1 74.2,52.5 75.7,50.6 79.2,45.9 84.1,52.5    86.1,55.1 88.8,55.1  "></polygon>
	<polygon class="st1" points="38.6,43.6 38.6,55.1 51.6,55.1 51.6,53.2 45.1,53.2 40.5,53.2 40.5,45.5 45.1,45.5 51.6,45.5    51.6,43.6  "></polygon>
	<polygon class="st1" points="42.1,50.3 51.6,50.3 51.6,48.4 42.1,48.4  "></polygon>
	<polygon class="st1" points="66.5,43.6 66.5,48.4 66.5,50.3 66.5,52.5 55.6,43.6 55.6,43.6 55.6,43.6 53.7,43.6 53.7,44.6    53.7,55.1 55.6,55.1 55.6,53.2 55.6,51.8 55.6,46.8 55.6,46.1 66.5,55.1 66.5,55.1 68.5,55.1 68.5,54.1 68.5,50.9 68.5,50.3    68.5,48.4 68.5,43.6 68,43.6  "></polygon>
	<path class="st1" d="M37.1,48c0-2.4-1.9-4.3-4.3-4.3h-10h-1.9v11.6h1.9v-1.6v-1.4v-2v-1.4v-3.2h10c1.3,0,2.3,1.1,2.3,2.3   c0,1.3-1.1,2.3-2.3,2.3h-8.5v2h7.4l2.7,3h2.6l-2.9-3.2C35.9,51.5,37.1,49.9,37.1,48z"></path>
</g>
<g>
	<path class="st0" d="M0.7,58h2.5c1.7,0,2.4,0.8,2.4,1.9c0,1.3-1,1.9-2.5,1.9H1.6v2.4H0.7V58z M3,61.2c1.2,0,1.7-0.5,1.7-1.2   c0-0.8-0.6-1.2-1.5-1.2H1.6v2.5H3z"></path>
	<path class="st0" d="M9.6,58h0.9v5.6H14v0.7H9.6V58z"></path>
	<path class="st0" d="M22.1,62.8h-3.2l-0.6,1.5h-0.9L20,58h0.9l2.7,6.3h-0.9L22.1,62.8z M21.8,62.1L20.5,59h0l-1.3,3.1H21.8z"></path>
	<path class="st0" d="M31.7,58l-2.4,3.5v2.8h-0.9v-2.8L25.9,58h1l1.9,2.7h0l1.8-2.7H31.7z"></path>
	<path class="st0" d="M45.8,62.6c0,1-0.8,1.7-2.4,1.7h-2.6V58h2.3c1.4,0,2.3,0.5,2.3,1.5c0,0.6-0.4,1.2-1.1,1.4v0   C45.1,61.2,45.8,61.7,45.8,62.6z M41.7,60.7h1.5c0.7,0,1.4-0.3,1.4-1c0-0.6-0.5-1-1.6-1h-1.3V60.7z M44.9,62.5   c0-0.7-0.6-1.1-1.7-1.1h-1.5v2.2h1.5C44.2,63.6,44.9,63.3,44.9,62.5z"></path>
	<path class="st0" d="M49.9,58h4.4v0.7h-3.5v2.1h2.9v0.7h-2.9v2.1h3.7v0.7h-4.6V58z"></path>
	<path class="st0" d="M60.1,58.7h-2.2V58h5.2v0.7H61v5.6h-0.9V58.7z"></path>
	<path class="st0" d="M68.6,58.7h-2.2V58h5.2v0.7h-2.2v5.6h-0.9V58.7z"></path>
	<path class="st0" d="M75.5,58h4.4v0.7h-3.5v2.1h2.9v0.7h-2.9v2.1h3.7v0.7h-4.6V58z"></path>
	<path class="st0" d="M88.2,64.3l-1.8-2.4H85v2.4h-0.9V58h2.5c1.7,0,2.4,0.8,2.4,1.9c0,1.1-0.7,1.7-1.7,1.9v0l1.9,2.5H88.2z    M85,61.2h1.4c1.2,0,1.7-0.5,1.7-1.2c0-0.8-0.6-1.2-1.6-1.2H85V61.2z"></path>
</g>
</svg>
